<?xml version="1.0" encoding="UTF-8" standalone="no"?>
<!-- Created with Inkscape (http://www.inkscape.org/) -->

<svg
   version="1.1"
   id="svg1"
   width="771"
   height="301"
   viewBox="0 0 771 301"
   sodipodi:docname="logo.svg"
   inkscape:version="1.3.2 (091e20ef0f, 2023-11-25)"
   xmlns:inkscape="http://www.inkscape.org/namespaces/inkscape"
   xmlns:sodipodi="http://sodipodi.sourceforge.net/DTD/sodipodi-0.dtd"
   xmlns="http://www.w3.org/2000/svg"
   xmlns:svg="http://www.w3.org/2000/svg">
  <defs
     id="defs1" />
  <sodipodi:namedview
     id="namedview1"
     pagecolor="#ffffff"
     bordercolor="#000000"
     borderopacity="0.25"
     inkscape:showpageshadow="2"
     inkscape:pageopacity="0.0"
     inkscape:pagecheckerboard="0"
     inkscape:deskcolor="#d1d1d1"
     inkscape:zoom="1.4142136"
     inkscape:cx="436.99199"
     inkscape:cy="160.86679"
     inkscape:window-width="1890"
     inkscape:window-height="1003"
     inkscape:window-x="0"
     inkscape:window-y="0"
     inkscape:window-maximized="1"
     inkscape:current-layer="g1" />
  <g
     inkscape:groupmode="layer"
     inkscape:label="Image"
     id="g1">
    <rect
       style="fill:#1e1e2e;fill-opacity:1;fill-rule:evenodd;stroke-width:9.98967"
       id="rect11"
       width="771"
       height="301"
       x="0"
       y="0" />
    <rect
       style="fill:#050312;fill-opacity:0;fill-rule:evenodd;stroke-width:1.01506"
       id="rect10"
       width="771"
       height="301"
       x="0"
       y="0" />
    <path
       style="fill:#cba6f7;fill-opacity:1"
       d="M 603,150.5 V 67 H 653.5 704 V 83.5 100 H 670.5 637 v 17 17 H 670.5 704 V 150.5 167 H 670.5 637 v 17 17 H 670.5 704 V 217.5 234 H 653.5 603 Z"
       id="path10" />
    <path
       style="fill:#f9e2af;fill-opacity:1"
       d="M 469,150.5 V 67 H 519.5 570 V 100.5 134 H 553 536 V 117 100 H 519.5 503 v 50.5 50.5 h 16.5 16.5 v -17 -17 h 17 17 V 200.5 234 H 519.5 469 Z"
       id="path9" />
    <path
       style="fill:#fab387;fill-opacity:1"
       d="M 335,150.5 V 67 H 385.5 436 V 150.5 234 H 419 402 V 200.5 167 H 385.5 369 V 200.5 234 H 352 335 Z M 402,117 V 100 H 385.5 369 v 17 17 h 16.5 16.5 z"
       id="path8" />
    <path
       style="fill:#f5c2e7;fill-opacity:1"
       d="M 201,150.5 V 67 h 50.5 50.5 v 50 50 H 268.5 235 V 200.5 234 H 218 201 Z M 268,117 V 100 H 251.5 235 v 17 17 h 16.5 16.5 z"
       id="path7" />
    <path
       style="fill:#f38ba8;fill-opacity:1"
       d="M 67,217.5 V 201 H 100.5 134 V 184 167 H 100.5 67 V 117 67 H 117.5 168 V 83.5 100 H 134.5 101 v 17 17 h 33.5 33.5 v 50 50 H 117.5 67 Z"
       id="path1" />
  </g>
</svg>
